<?xml version="1.0" encoding="UTF-8"?><svg id="a" xmlns="http://www.w3.org/2000/svg" xmlns:xlink="http://www.w3.org/1999/xlink" viewBox="0 0 1920 860"><defs><style>.c{fill:url(#b);}.d{opacity:.03;}.e,.f,.g,.h{fill:#fff;}.f{opacity:.5;}.f,.g,.h{isolation:isolate;}.g{opacity:.1;}</style><linearGradient id="b" x1="4623.9" y1="-192.96" x2="5086.67" y2="1129.31" gradientTransform="translate(5802 860) rotate(-180)" gradientUnits="userSpaceOnUse"><stop offset="0" stop-color="#7a88cc"/><stop offset=".6" stop-color="#6770b8"/><stop offset="1" stop-color="#6067b0"/></linearGradient></defs><g><rect class="c" x=".5" y=".5" width="1919" height="858.6"/><path d="M1919,1V858.6H1V1H1919M1920,0H0V859.6H1920V0h0Z"/></g><g class="d"><g><path class="h" d="M1828.74,367.82c34.33,34.33,34.33,89.99,0,124.33l-124.33,124.33c-16.51,16.49-25.8,38.87-25.8,62.21v103.01c0,145.68-118.09,263.77-263.77,263.77h-131.88c-24.28,0-43.96-19.68-43.96-43.96v-87.92c0-24.28,19.68-43.96,43.96-43.96h131.88c48.56,0,87.92-39.36,87.92-87.92v-102.98c0-69.97,27.81-137.07,77.29-186.53l62.18-62.18-62.15-62.15c-49.51-49.47-77.32-116.6-77.32-186.59V78.31c0-48.56-39.36-87.92-87.92-87.92h-131.88c-24.28,0-43.96-19.68-43.96-43.96v-87.92c0-24.28,19.68-43.96,43.96-43.96h131.88c145.68,0,263.77,118.09,263.77,263.77v102.98c-.01,23.34,9.26,45.73,25.77,62.23l124.33,124.3h.03Z"/><path class="e" d="M636.99-185.46h-131.88c-145.68,0-263.77,118.09-263.77,263.77v102.98c-.03,23.34-9.29,45.71-25.77,62.23l-124.3,124.3c-34.33,34.33-34.33,89.99,0,124.33l124.33,124.33c16.48,16.51,25.74,38.88,25.74,62.21v103.01c0,145.68,118.09,263.77,263.77,263.77h131.88c24.28,0,43.96-19.68,43.96-43.96v-87.92c0-24.28-19.68-43.96-43.96-43.96h-131.88c-48.56,0-87.92-39.36-87.92-87.92v-102.98c0-69.97-27.81-137.07-77.29-186.53l-62.12-62.18,62.18-62.18c49.46-49.47,77.25-116.57,77.23-186.53V78.31c0-48.56,39.36-87.92,87.92-87.92h131.88c24.28,0,43.96-19.68,43.96-43.96v-87.92c0-24.28-19.68-43.96-43.96-43.96Z"/></g></g><g><rect class="g" x="516.57" y="365.6" width="128.8" height="128.8" rx="39.63" ry="39.63"/><path class="f" d="M619.36,426.76c1.78,1.79,1.78,4.67,0,6.46l-6.46,6.46c-.85,.86-1.33,2.02-1.33,3.23v5.35c0,7.57-6.14,13.71-13.71,13.71h-6.86c-1.26,.01-2.29-1-2.3-2.26h0v-4.6c.01-1.26,1.04-2.28,2.3-2.28h6.86c2.52,0,4.56-2.04,4.56-4.56v-5.37c-.01-3.63,1.41-7.11,3.96-9.69l3.29-3.23-3.23-3.23c-2.55-2.58-3.98-6.06-3.96-9.69v-5.35c.01-2.52-2.02-4.57-4.54-4.58h-6.93c-1.26,0-2.29-1.02-2.3-2.28v-4.6c0-1.26,1.02-2.28,2.28-2.28h6.88c7.57,0,13.71,6.14,13.71,13.71v5.35c0,1.21,.48,2.37,1.33,3.23l6.46,6.46v.02Z"/><path class="e" d="M570.94,398.01h-6.86c-7.56,0-13.69,6.13-13.69,13.69v5.37c0,1.21-.49,2.37-1.35,3.23l-6.46,6.46c-1.78,1.79-1.78,4.67,0,6.46l6.46,6.46c.86,.86,1.34,2.02,1.35,3.23v5.35c-.01,7.56,6.11,13.7,13.67,13.71h6.88c1.26,.01,2.29-1,2.3-2.26h0v-4.6c-.01-1.26-1.04-2.28-2.3-2.28h-6.86c-2.52,0-4.56-2.04-4.56-4.56v-5.37c.01-3.63-1.41-7.11-3.96-9.69l-3.29-3.23,3.23-3.23c2.55-2.58,3.98-6.06,3.96-9.69v-5.35c-.01-2.52,2.02-4.57,4.54-4.58h6.88c1.26,0,2.29-1.02,2.3-2.28v-4.6c-.01-1.24-1-2.24-2.24-2.26Z"/><path class="e" d="M699.05,397.12v58.63h-8.56v-58.63h8.56Z"/><path class="e" d="M709.9,455.75v-41.61h8.26v5.77h.38c1.28-2.1,3.1-3.82,5.27-4.97,2.19-1.23,4.66-1.87,7.17-1.86,3.95-.22,7.8,1.32,10.5,4.22,2.69,3.35,4.03,7.6,3.74,11.89v26.57h-8.2v-25.18c.13-2.61-.75-5.18-2.44-7.17-1.56-1.78-3.84-2.77-6.2-2.69-2.76-.11-5.44,.96-7.37,2.93-1.93,2.11-2.93,4.91-2.79,7.77v24.35h-8.32Z"/><path class="e" d="M791.71,455.75h-8.26v-5.63h-.46c-1.23,2.06-2.99,3.77-5.09,4.93-2.13,1.18-4.54,1.79-6.97,1.74-3.28,.04-6.49-.95-9.17-2.83-2.78-2.02-4.95-4.76-6.28-7.93-1.58-3.66-2.36-7.62-2.28-11.61-.08-3.84,.68-7.66,2.24-11.17,1.33-3.06,3.49-5.69,6.24-7.59,2.69-1.8,5.87-2.74,9.11-2.69,2.4-.02,4.77,.6,6.86,1.78,2.14,1.23,3.97,2.93,5.35,4.97h.46v-22.61h8.26v58.63Zm-11.1-30.95c-1.86-2.5-4.81-3.94-7.93-3.86-3.11-.05-6.05,1.39-7.93,3.86-2.14,2.91-3.23,6.47-3.07,10.08-.04,2.5,.46,4.99,1.45,7.29,.83,1.98,2.21,3.68,3.96,4.91,1.75,1.19,3.83,1.8,5.94,1.74,3.07,.04,5.97-1.44,7.73-3.96,2.09-2.94,3.12-6.49,2.95-10.08,.12-3.58-.97-7.1-3.11-9.99Z"/><path class="e" d="M810.77,404.23c-1.06,1.01-2.5,1.54-3.96,1.45-1.4,.07-2.76-.46-3.74-1.45-1.9-2.22-1.9-5.5,0-7.73,.99-.99,2.35-1.52,3.74-1.45,1.46-.09,2.9,.43,3.96,1.45,1.98,2.19,1.98,5.53,0,7.73Zm.36,9.91v41.61h-8.26v-41.61h8.26Z"/><path class="e" d="M828.86,472.57c-3.05-1.6-5.58-4.05-7.27-7.05l6.97-3.96c1.12,1.93,2.76,3.49,4.74,4.52,1.92,1.05,4.07,1.61,6.26,1.62,3.03,.18,5.99-.97,8.1-3.15,2.04-2.46,3.07-5.61,2.89-8.8v-5.94h-.46c-1.29,2.05-3.06,3.75-5.15,4.97-2.11,1.2-4.49,1.81-6.91,1.78-3.26,.05-6.46-.93-9.13-2.79-2.79-2.01-4.98-4.75-6.32-7.93-1.59-3.62-2.39-7.54-2.34-11.49-.08-3.83,.68-7.63,2.24-11.13,1.33-3.05,3.5-5.66,6.24-7.55,2.69-1.8,5.87-2.74,9.11-2.69,2.39,0,4.74,.61,6.82,1.78,2.15,1.22,4,2.92,5.39,4.97h.46v-5.59h8.26v40.32c0,6.53-1.67,11.6-5.01,15.24-3.68,3.78-8.82,5.77-14.09,5.45-3.76,.06-7.47-.83-10.8-2.58Zm19-27.74c2.03-2.89,3.06-6.37,2.91-9.91,.15-3.58-.92-7.11-3.03-10.01-1.86-2.5-4.81-3.94-7.93-3.86-3.11-.05-6.05,1.39-7.93,3.86-2.14,2.88-3.23,6.42-3.07,10.01-.14,3.58,.99,7.09,3.19,9.91,1.99,2.48,5.02,3.89,8.2,3.82,3.03,.04,5.88-1.4,7.65-3.86v.04Z"/><path class="e" d="M876.25,454.14c-2.96-1.8-5.31-4.45-6.74-7.61-1.65-3.66-2.45-7.64-2.36-11.65-.1-3.99,.7-7.96,2.36-11.59,1.44-3.15,3.79-5.81,6.74-7.63,3.12-1.85,6.7-2.78,10.32-2.69,3.59-.08,7.14,.85,10.22,2.69,2.96,1.83,5.32,4.48,6.8,7.63,1.66,3.63,2.47,7.6,2.38,11.59,.09,4.01-.72,7.99-2.38,11.65-1.46,3.16-3.82,5.81-6.8,7.61-3.1,1.81-6.64,2.73-10.22,2.65-3.62,.08-7.19-.84-10.32-2.65Zm18.35-8.9c2.12-3.02,3.17-6.67,2.97-10.36,.2-3.67-.84-7.3-2.97-10.3-3.59-4.42-10.08-5.08-14.49-1.5-.55,.45-1.05,.95-1.5,1.5-2.12,3-3.16,6.63-2.95,10.3-.21,3.69,.83,7.34,2.95,10.36,3.55,4.42,10.01,5.11,14.43,1.56,.57-.46,1.1-.98,1.56-1.56Z"/><g><path class="e" d="M972.06,448.55c2.76-3.1,4.13-7.31,4.13-12.63v-35.91h4.32v36.51c0,4.22-.79,7.9-2.38,11.03-1.59,3.13-3.88,5.55-6.86,7.26-2.98,1.71-6.46,2.57-10.43,2.57s-7.45-.86-10.43-2.57c-2.98-1.71-5.27-4.13-6.85-7.26-1.59-3.13-2.38-6.8-2.38-11.03v-36.51h4.32v35.69c0,5.41,1.38,9.69,4.13,12.82,2.76,3.13,6.49,4.69,11.21,4.69s8.46-1.55,11.21-4.66Z"/><path class="e" d="M995.05,455.07c-2.68-1.54-4.72-3.62-6.11-6.26l3.58-2.01c1.19,2.09,2.84,3.74,4.95,4.95,2.11,1.22,4.48,1.83,7.12,1.83,3.03,0,5.45-.63,7.26-1.9,1.81-1.27,2.72-2.97,2.72-5.1,0-1.94-.89-3.53-2.68-4.77-1.79-1.24-4.5-2.28-8.12-3.13-4.52-.99-7.9-2.38-10.13-4.17s-3.35-4.1-3.35-6.93c0-3.53,1.25-6.32,3.76-8.38,2.51-2.06,5.9-3.09,10.17-3.09,3.23,0,6.08,.72,8.57,2.16,2.48,1.44,4.52,3.45,6.11,6.04l-3.43,2.31c-1.24-2.13-2.84-3.79-4.81-4.95-1.96-1.17-4.13-1.75-6.52-1.75-2.93,0-5.26,.66-7,1.97-1.74,1.32-2.61,3.07-2.61,5.25,0,1.89,.92,3.46,2.76,4.73,1.84,1.27,4.59,2.32,8.27,3.17,4.27,.89,7.54,2.26,9.8,4.1,2.26,1.84,3.39,4.12,3.39,6.85,0,3.53-1.29,6.31-3.87,8.34-2.58,2.04-6.06,3.06-10.43,3.06-3.58,0-6.71-.77-9.39-2.31Z"/><path class="e" d="M1058.75,438.01h-29.58c.25,4.67,1.63,8.41,4.13,11.21,2.51,2.81,5.77,4.21,9.8,4.21,2.38,0,4.64-.58,6.78-1.75,2.13-1.17,3.8-2.77,4.99-4.81l3.2,2.16c-1.44,2.53-3.48,4.53-6.11,6-2.63,1.46-5.59,2.2-8.87,2.2-3.63,0-6.81-.84-9.54-2.53-2.73-1.69-4.84-4.07-6.33-7.15-1.49-3.08-2.24-6.66-2.24-10.73s.72-7.75,2.16-10.88c1.44-3.13,3.48-5.55,6.11-7.26s5.71-2.57,9.24-2.57c3.33,0,6.25,.76,8.75,2.27,2.51,1.52,4.45,3.65,5.81,6.41,1.37,2.76,2.05,5.92,2.05,9.5,0,1.14-.12,2.38-.37,3.73Zm-3.88-3.8c0-4.27-1.14-7.72-3.43-10.36-2.29-2.63-5.27-3.95-8.94-3.95s-6.63,1.29-9.02,3.87c-2.38,2.58-3.78,6.06-4.17,10.43h25.55Z"/><path class="e" d="M1068.36,456.34v-39.19h4.1v8.72h.3c1.54-2.83,3.66-5.17,6.37-7,2.71-1.84,5.82-2.76,9.35-2.76h.67v4.47h-.97c-3.08,0-5.81,.67-8.2,2.01-2.38,1.34-4.24,3.03-5.55,5.07-1.32,2.04-1.97,4.05-1.97,6.04v22.65h-4.1Z"/><path class="e" d="M1122.4,400.01v56.33h-4.32v-56.33h4.32Z"/><path class="e" d="M1134.02,456.34v-39.19h4.1v7.15h.3c1.24-2.48,3.07-4.47,5.48-5.96,2.41-1.49,5.05-2.24,7.93-2.24,4.37,0,7.81,1.42,10.32,4.25,2.51,2.83,3.76,6.73,3.76,11.7v24.29h-4.1v-23.62c0-3.87-1.01-6.98-3.02-9.31s-4.63-3.5-7.86-3.5c-2.53,0-4.77,.6-6.71,1.79-1.94,1.19-3.44,2.79-4.51,4.81-1.07,2.01-1.6,4.24-1.6,6.67v23.17h-4.1Z"/><path class="e" d="M1194.52,421.02h-11.62v24.44c0,2.53,.6,4.5,1.79,5.89,1.19,1.39,2.81,2.09,4.84,2.09,1.19,0,2.56-.3,4.1-.89v3.88c-1.54,.6-3.18,.89-4.92,.89-3.13,0-5.58-.99-7.34-2.98-1.76-1.99-2.65-4.82-2.65-8.49v-24.81h-6.18v-3.87h6.18v-11.62h4.17v11.62h11.62v3.87Z"/><path class="e" d="M1232.74,438.01h-29.58c.25,4.67,1.63,8.41,4.13,11.21,2.51,2.81,5.77,4.21,9.8,4.21,2.38,0,4.64-.58,6.78-1.75,2.13-1.17,3.8-2.77,4.99-4.81l3.2,2.16c-1.44,2.53-3.48,4.53-6.11,6-2.63,1.46-5.59,2.2-8.87,2.2-3.63,0-6.81-.84-9.54-2.53-2.73-1.69-4.84-4.07-6.33-7.15-1.49-3.08-2.24-6.66-2.24-10.73s.72-7.75,2.16-10.88c1.44-3.13,3.48-5.55,6.11-7.26s5.71-2.57,9.24-2.57c3.33,0,6.25,.76,8.75,2.27,2.51,1.52,4.45,3.65,5.81,6.41,1.37,2.76,2.05,5.92,2.05,9.5,0,1.14-.12,2.38-.37,3.73Zm-3.88-3.8c0-4.27-1.14-7.72-3.43-10.36-2.29-2.63-5.27-3.95-8.94-3.95s-6.63,1.29-9.02,3.87c-2.38,2.58-3.78,6.06-4.17,10.43h25.55Z"/><path class="e" d="M1242.35,456.34v-39.19h4.1v8.72h.3c1.54-2.83,3.66-5.17,6.37-7,2.71-1.84,5.82-2.76,9.35-2.76h.67v4.47h-.97c-3.08,0-5.81,.67-8.2,2.01-2.38,1.34-4.24,3.03-5.55,5.07-1.32,2.04-1.97,4.05-1.97,6.04v22.65h-4.1Z"/><path class="e" d="M1277.52,404.93c-1.29,1.39-1.94,3.4-1.94,6.04v6.18h11.4v3.87h-11.4v35.32h-4.17v-35.32h-5.96v-3.87h5.96v-6.41c0-3.73,.92-6.62,2.76-8.68,1.84-2.06,4.35-3.09,7.53-3.09,2.09,0,3.95,.3,5.59,.89v3.87c-1.44-.6-3.03-.89-4.77-.89-2.04,0-3.7,.7-4.99,2.09Z"/><path class="e" d="M1293.91,454.55c-2.19-1.89-3.28-4.44-3.28-7.67,0-8.2,6.71-12.29,20.12-12.29h6.26v-4.4c0-3.23-.93-5.75-2.79-7.56-1.86-1.81-4.46-2.72-7.79-2.72s-6.81,1.39-10.28,4.17l-2.46-2.91c1.84-1.59,3.86-2.83,6.07-3.73,2.21-.89,4.53-1.34,6.97-1.34,4.52,0,8.05,1.18,10.58,3.54,2.53,2.36,3.8,5.62,3.8,9.8v26.9h-4.1v-6.71h-.3c-1.34,2.48-3.23,4.4-5.66,5.74-2.43,1.34-5.12,2.01-8.05,2.01-3.87,0-6.9-.94-9.09-2.83Zm16.21-2.46c2.06-.99,3.72-2.42,4.99-4.28,1.27-1.86,1.9-4.01,1.9-6.45v-2.98h-5.51c-11.13,0-16.69,2.76-16.69,8.27,0,2.14,.79,3.83,2.38,5.07,1.59,1.24,3.75,1.86,6.48,1.86,2.24,0,4.38-.5,6.45-1.49Z"/><path class="e" d="M1338.5,454.85c-2.71-1.74-4.79-4.17-6.26-7.3-1.46-3.13-2.2-6.73-2.2-10.8s.73-7.59,2.2-10.69c1.46-3.1,3.55-5.5,6.26-7.19,2.71-1.69,5.87-2.53,9.5-2.53,2.88,0,5.61,.75,8.2,2.23,2.58,1.49,4.59,3.48,6.04,5.96l-3.2,2.24c-1.19-2.04-2.79-3.64-4.81-4.81-2.01-1.17-4.16-1.75-6.44-1.75-2.68,0-5.04,.7-7.08,2.09-2.04,1.39-3.63,3.34-4.77,5.85-1.14,2.51-1.71,5.38-1.71,8.61s.56,6.2,1.68,8.75c1.12,2.56,2.69,4.54,4.73,5.96,2.04,1.42,4.4,2.12,7.08,2.12,2.33,0,4.51-.58,6.52-1.75s3.61-2.77,4.81-4.81l3.2,2.24c-1.44,2.53-3.45,4.53-6.04,6-2.58,1.46-5.32,2.2-8.2,2.2-3.63,0-6.79-.87-9.5-2.61Z"/><path class="e" d="M1403.06,438.01h-29.58c.25,4.67,1.63,8.41,4.13,11.21,2.51,2.81,5.77,4.21,9.8,4.21,2.38,0,4.64-.58,6.78-1.75,2.13-1.17,3.8-2.77,4.99-4.81l3.2,2.16c-1.44,2.53-3.48,4.53-6.11,6-2.63,1.46-5.59,2.2-8.87,2.2-3.63,0-6.81-.84-9.54-2.53-2.73-1.69-4.84-4.07-6.33-7.15-1.49-3.08-2.24-6.66-2.24-10.73s.72-7.75,2.16-10.88c1.44-3.13,3.48-5.55,6.11-7.26s5.71-2.57,9.24-2.57c3.33,0,6.25,.76,8.75,2.27,2.51,1.52,4.45,3.65,5.81,6.41,1.37,2.76,2.05,5.92,2.05,9.5,0,1.14-.12,2.38-.37,3.73Zm-3.88-3.8c0-4.27-1.14-7.72-3.43-10.36-2.29-2.63-5.27-3.95-8.94-3.95s-6.63,1.29-9.02,3.87c-2.38,2.58-3.78,6.06-4.17,10.43h25.55Z"/></g></g></svg>